<svg id="Layer_1" data-name="Layer 1" xmlns="http://www.w3.org/2000/svg" viewBox="0 0 100 100"><rect x="16.4528" y="1.1481" width="67.0687" height="83.8359" rx="3.6" style="fill:none;stroke:#333;stroke-miterlimit:10"/><path d="M38.8184,89.3633a3.2953,3.2953,0,0,1,2.0952.6084,1.9671,1.9671,0,0,1,.77,1.6269,2.5584,2.5584,0,0,1-1.72,2.2793A4.4222,4.4222,0,0,1,41.5215,95.03a2.1728,2.1728,0,0,1,.4614,1.3506,2.2673,2.2673,0,0,1-.8467,1.8466,3.5074,3.5074,0,0,1-2.2924.6934,3.7428,3.7428,0,0,1-2.35-.6494,2.1949,2.1949,0,0,1-.8339-1.84,2.37,2.37,0,0,1,.436-1.3974,3.6573,3.6573,0,0,1,1.43-1.1055A3.583,3.583,0,0,1,36.31,92.8525a2.308,2.308,0,0,1-.3633-1.2734,1.9211,1.9211,0,0,1,.7964-1.6143A3.35,3.35,0,0,1,38.8184,89.3633Zm-1.7256,7.0176a1.234,1.234,0,0,0,.4648,1.0283,1.9835,1.9835,0,0,0,1.2608.3662,1.9449,1.9449,0,0,0,1.2768-.3789,1.2691,1.2691,0,0,0,.4551-1.0283,1.3168,1.3168,0,0,0-.42-.9424,3.9493,3.9493,0,0,0-1.2735-.79l-.1845-.083a3.2748,3.2748,0,0,0-1.21.8125A1.5387,1.5387,0,0,0,37.0928,96.3809Zm1.7129-5.8653a1.5786,1.5786,0,0,0-1.0254.3155,1.0448,1.0448,0,0,0-.3882.8564,1.227,1.227,0,0,0,.14.5918,1.5281,1.5281,0,0,0,.4073.4746,4.869,4.869,0,0,0,.9043.5127,3.0058,3.0058,0,0,0,1.0795-.71,1.3041,1.3041,0,0,0,.315-.8691,1.0407,1.0407,0,0,0-.3916-.8564A1.6121,1.6121,0,0,0,38.8057,90.5156Z" style="fill:#231f20"/><path d="M45.4536,94.19l-2.0762-2.0761.7964-.8086,2.0884,2.0761,2.0952-2.0761.7959.7832L47.0581,94.19l2.07,2.0879-.7837.7959L46.25,94.999l-2.063,2.0752-.7964-.7959Z" style="fill:#231f20"/><path d="M54.9541,98.7939H53.457V92.7832q0-1.0767.0518-1.707c-.0977.1015-.2178.2148-.36.3379s-.6181.5136-1.43,1.1709l-.751-.9483,2.7383-2.1523h1.248Z" style="fill:#231f20"/><path d="M64.3145,94.1387a6.6173,6.6173,0,0,1-.78,3.6045,2.9454,2.9454,0,0,1-4.74-.0381,6.5007,6.5007,0,0,1-.8027-3.5664,6.6562,6.6562,0,0,1,.78-3.6328,2.9477,2.9477,0,0,1,4.74.0546A6.5491,6.5491,0,0,1,64.3145,94.1387Zm-4.8077,0a6.7948,6.7948,0,0,0,.3916,2.72,1.3689,1.3689,0,0,0,2.5088-.0127,9.4,9.4,0,0,0,0-5.416,1.3635,1.3635,0,0,0-2.5088-.0156A6.8351,6.8351,0,0,0,59.5068,94.1387Z" style="fill:#231f20"/><path d="M51.5879,49.2261H49.6636V41.4976q0-1.3843.0654-2.1944-.1883.1964-.4624.4336-.2746.2388-1.8379,1.5069l-.9663-1.22,3.52-2.7676h1.605Z" style="fill:#231f20"/></svg>