<svg id="Layer_2" data-name="Layer 2" xmlns="http://www.w3.org/2000/svg" viewBox="0 0 100 100"><rect x="29.0282" y="13.7235" width="41.9179" height="58.6851" rx="2.88" style="fill:none;stroke:#333;stroke-miterlimit:10"/><path d="M42.5527,82.3779a3.19,3.19,0,0,1,2.2285.7451,2.6034,2.6034,0,0,1,.8213,2.0313,2.9661,2.9661,0,0,1-.9326,2.3271,3.8354,3.8354,0,0,1-2.6523.837,5.0022,5.0022,0,0,1-2.4512-.503V86.459a4.4621,4.4621,0,0,0,1.1846.4521,5.3576,5.3576,0,0,0,1.2412.1592,2.309,2.309,0,0,0,1.541-.4521,1.6441,1.6441,0,0,0,.5283-1.3243q0-1.6684-2.126-1.6679a5.4632,5.4632,0,0,0-.7392.06q-.44.06-.77.1367l-.668-.3945.3565-4.5469h4.8388v1.3311H41.4316l-.21,2.3047q.2226-.0381.5449-.0889A5.1007,5.1007,0,0,1,42.5527,82.3779Z" style="fill:#231f20"/><path d="M49.1758,83.5879,47.1,81.5117l.7959-.8086,2.0889,2.0762,2.0947-2.0762.7959.7832L50.78,83.5879,52.85,85.6758l-.7832.7959-2.0947-2.0752-2.0635,2.0752-.7959-.7959Z" style="fill:#231f20"/><path d="M55.3389,88.1914,59.02,80.2129H54.1807V78.8945h6.4375v1.044l-3.6621,8.2529Z" style="fill:#231f20"/><path d="M54.0527,49.5825H45.94v-1.457l3.0859-3.1035a26.2284,26.2284,0,0,0,1.8135-1.9854A4.7254,4.7254,0,0,0,51.49,41.936a2.9837,2.9837,0,0,0,.2041-1.1054,1.685,1.685,0,0,0-.4873-1.2774,1.8679,1.8679,0,0,0-1.3466-.4668,3.5978,3.5978,0,0,0-1.33.2539,6.2143,6.2143,0,0,0-1.4864.917l-1.039-1.2685a6.6786,6.6786,0,0,1,1.94-1.1953,5.659,5.659,0,0,1,2.0049-.3526,3.9482,3.9482,0,0,1,2.6777.8721,2.9462,2.9462,0,0,1,1.0069,2.3457,4.105,4.105,0,0,1-.291,1.5391A6.2487,6.2487,0,0,1,52.4521,43.7,20.2124,20.2124,0,0,1,50.45,45.7915l-2.08,2.0147v.082h5.6826Z" style="fill:#231f20"/></svg>