<svg id="Layer_3" data-name="Layer 3" xmlns="http://www.w3.org/2000/svg" viewBox="0 0 100 100"><rect x="41.6036" y="30.4907" width="16.7672" height="25.1508" rx="2.16" style="fill:none;stroke:#333;stroke-miterlimit:10"/><path d="M45.7051,77.5088H39.3945V76.375l2.4-2.4131a20.3315,20.3315,0,0,0,1.41-1.5439,3.7,3.7,0,0,0,.5068-.8565,2.3248,2.3248,0,0,0,.1592-.8594,1.3143,1.3143,0,0,0-.3789-.9941,1.4556,1.4556,0,0,0-1.0479-.3623,2.7831,2.7831,0,0,0-1.0341.1973,4.8413,4.8413,0,0,0-1.1563.7129l-.8086-.9873a5.2266,5.2266,0,0,1,1.5088-.93,4.44,4.44,0,0,1,1.5605-.2735,3.0686,3.0686,0,0,1,2.0821.6778,2.2907,2.2907,0,0,1,.7832,1.8252,3.2,3.2,0,0,1-.2256,1.1962,4.91,4.91,0,0,1-.6943,1.169,15.9238,15.9238,0,0,1-1.5567,1.6269L41.2852,76.127V76.19h4.42Z" style="fill:#231f20"/><path d="M49.1758,72.9053,47.1,70.8291l.7959-.8086,2.0889,2.0762,2.0947-2.0762.7959.7832L50.78,72.9053,52.85,74.9932l-.7832.7959-2.0947-2.0752-2.0635,2.0752-.7959-.7959Z" style="fill:#231f20"/><path d="M60.2422,70.3389a2.1563,2.1563,0,0,1-.5156,1.4736,2.5972,2.5972,0,0,1-1.4522.793v.0507a2.8183,2.8183,0,0,1,1.6817.6973,1.998,1.998,0,0,1,.5595,1.4805,2.4592,2.4592,0,0,1-.9482,2.0732,4.3509,4.3509,0,0,1-2.7.7285,6.07,6.07,0,0,1-2.61-.5029v-1.331a5.92,5.92,0,0,0,1.2539.4521,5.4277,5.4277,0,0,0,1.2735.1592,2.6871,2.6871,0,0,0,1.6181-.4,1.4519,1.4519,0,0,0,.5342-1.2422,1.1814,1.1814,0,0,0-.5918-1.0947,3.7813,3.7813,0,0,0-1.8593-.3506h-.8086V72.1094h.8212q2.2281,0,2.2286-1.541a1.1349,1.1349,0,0,0-.3887-.9239,1.7455,1.7455,0,0,0-1.1455-.3242,3.48,3.48,0,0,0-1.02.1494,4.8376,4.8376,0,0,0-1.1583.5821l-.7324-1.044a4.8842,4.8842,0,0,1,2.9737-.9424,3.5466,3.5466,0,0,1,2.1972.6045A1.986,1.986,0,0,1,60.2422,70.3389Z" style="fill:#231f20"/><path d="M54.2285,46.9175H52.7051v2.4668h-1.77V46.9175H45.77V45.5181l5.1651-7.47h1.77V45.41h1.5234ZM50.9346,45.41V42.5718q0-1.5147.0771-2.4815H50.95a8.7657,8.7657,0,0,1-.6807,1.2373L47.4629,45.41Z" style="fill:#231f20"/></svg>